<svg width="1280" height="640" viewBox="0 0 1280 640" fill="none" xmlns="http://www.w3.org/2000/svg">
<path fill-rule="evenodd" clip-rule="evenodd" d="M746.578 137.564C741.783 134.629 736.197 133 730.379 133H549.462C543.644 133 538.058 134.629 533.263 137.564C528.929 140.217 525.241 143.937 522.612 148.487L432.154 305.013C429.216 310.096 427.837 315.805 428.015 321.475C428.173 326.496 429.553 331.487 432.154 335.987L522.612 492.513C525.241 497.063 528.929 500.783 533.263 503.436C538.058 506.371 543.644 508 549.462 508L730.379 508C736.197 508 741.783 506.371 746.578 503.436C750.912 500.783 754.6 497.063 757.229 492.513L847.687 335.987C850.288 331.487 851.668 326.496 851.826 321.475C852.004 315.805 850.625 310.096 847.687 305.013L757.229 148.487C754.6 143.937 750.912 140.217 746.578 137.564ZM732.114 372.303C735.955 370.529 737.875 368.46 737.875 366.096V259.694C737.875 257.921 737.137 256.443 735.659 255.261C734.478 254.078 733 253.487 731.228 253.487C730.637 253.487 725.319 255.556 715.274 259.694C705.524 263.832 697.251 265.901 690.456 265.901C687.502 265.901 680.116 263.832 668.298 259.694C656.48 255.556 645.105 253.487 634.174 253.487C630.333 253.487 626.197 253.931 621.765 254.817C617.629 255.408 613.788 256.147 610.242 257.034C606.993 257.921 603.595 258.955 600.05 260.137C596.8 261.024 593.993 261.911 591.629 262.797C589.561 263.684 587.641 264.571 585.868 265.457C584.391 266.049 583.505 266.344 583.209 266.344V252.157C590.004 247.428 593.402 240.778 593.402 232.207C593.402 225.409 590.891 219.498 585.868 214.473C580.846 209.449 574.789 206.937 567.698 206.937C560.903 206.937 554.994 209.449 549.971 214.473C544.949 219.498 542.438 225.409 542.438 232.207C542.438 240.483 545.835 247.133 552.63 252.157V418.41C552.63 422.843 554.108 426.538 557.062 429.494C560.017 432.449 563.562 433.927 567.698 433.927C571.834 433.927 575.38 432.449 578.334 429.494C581.289 426.834 582.766 423.139 582.766 418.41V383.829H584.095C584.686 383.534 585.13 383.238 585.425 382.943C604.924 374.372 622.06 370.086 636.833 370.086C645.401 370.086 655.003 372.155 665.639 376.293C676.275 380.431 684.843 382.499 691.342 382.499C702.274 382.499 715.865 379.1 732.114 372.303Z" fill="#1FAECE"/>
<path d="M980.881 268.127C982.587 264.709 985.334 263 989.125 263C992.915 263 995.662 264.709 997.368 268.127L1015.84 305.728L1057.35 311.995C1061.14 312.374 1063.6 314.368 1064.74 317.977C1065.87 321.585 1065.12 324.718 1062.46 327.377L1032.33 356.717L1039.44 398.305C1040.01 401.913 1038.78 404.762 1035.74 406.851C1032.71 409.129 1029.58 409.414 1026.36 407.705L989.125 388.335L951.887 407.705C948.665 409.604 945.538 409.414 942.506 407.136C939.474 404.857 938.242 401.913 938.811 398.305L945.917 356.717L915.786 327.377C913.133 324.718 912.375 321.585 913.512 317.977C914.649 314.368 917.112 312.374 920.902 311.995L962.404 305.728L980.881 268.127Z" fill="#1FAECE"/>
<path d="M963.938 550.378C962.679 552.002 961.022 552.943 958.966 553.201C957.115 553.433 955.38 552.917 953.759 551.654C952.139 550.391 951.2 548.728 950.941 546.666C950.683 544.604 951.183 542.761 952.441 541.137C953.699 539.513 955.254 538.585 957.105 538.353C959.161 538.095 960.999 538.598 962.619 539.861C964.445 541.098 965.488 542.748 965.746 544.81C966.005 546.873 965.402 548.729 963.938 550.378ZM882.202 560.624C880.943 562.248 879.286 563.188 877.23 563.446C875.379 563.678 873.541 563.175 871.715 561.938C870.095 560.675 869.155 559.012 868.897 556.95C868.638 554.888 869.138 553.044 870.397 551.42C871.861 549.771 873.518 548.83 875.369 548.598C877.425 548.34 879.263 548.843 880.884 550.106C882.504 551.369 883.443 553.032 883.702 555.094C883.96 557.156 883.46 559 882.202 560.624ZM956.119 507.999L967.706 480.467C968.066 480.003 968.207 479.462 968.129 478.843C967.871 476.781 966.713 475.879 964.657 476.137C963.423 476.291 962.563 476.923 962.075 478.031L950.257 506.22C937.633 502.146 924.638 500.947 911.273 502.623C897.907 504.298 885.61 508.667 874.382 515.73L855.973 491.331C855.226 490.377 854.237 489.977 853.003 490.132C850.947 490.39 850.048 491.55 850.306 493.612C850.384 494.231 850.654 494.72 851.117 495.081L869.14 518.901C857.065 527.536 847.793 538.544 841.324 551.922C834.856 565.301 831.948 579.595 832.602 594.805L1010.26 572.536C1007.14 557.636 1000.8 544.502 991.225 533.133C981.654 521.765 969.953 513.387 956.119 507.999Z" fill="#1FAECE"/>
<path d="M1197.7 465.256L1111.18 488.438C1109.55 488.875 1108.52 488.279 1108.08 486.649L1106.11 479.314C1105.39 476.597 1105.72 474.033 1107.12 471.621C1108.51 469.209 1110.57 467.639 1113.29 466.91L1123.08 464.285L1120.24 453.69C1119.81 452.06 1120.41 451.027 1122.04 450.589L1130.2 448.402C1131.83 447.965 1132.87 448.561 1133.3 450.191L1136.14 460.786L1162.26 453.788L1159.42 443.193C1158.98 441.563 1159.58 440.529 1161.22 440.092L1169.38 437.905C1171.01 437.467 1172.04 438.064 1172.48 439.694L1175.32 450.289L1185.11 447.664C1187.83 446.935 1190.4 447.266 1192.82 448.658C1195.23 450.049 1196.8 452.103 1197.53 454.82L1199.49 462.155C1199.93 463.785 1199.33 464.818 1197.7 465.256ZM1112.93 494.958L1199.45 471.776C1201.08 471.338 1202.11 471.935 1202.55 473.565L1216.75 526.54C1217.47 529.256 1217.14 531.821 1215.75 534.233C1214.35 536.645 1212.29 538.215 1209.57 538.944L1137.75 558.19C1135.03 558.919 1132.46 558.588 1130.04 557.196C1127.63 555.805 1126.06 553.751 1125.33 551.034L1111.14 498.059C1110.7 496.429 1111.3 495.395 1112.93 494.958ZM1186.12 496.311L1178.88 492.137C1177.46 491.206 1176.29 491.448 1175.36 492.863L1159.51 520.256L1147.56 513.195C1146.18 512.4 1145.02 512.709 1144.09 514.124L1139.91 521.36C1139.01 522.911 1139.32 524.065 1140.84 524.824L1162.15 537.456C1163.67 538.214 1164.82 537.904 1165.62 536.526L1187.05 499.775C1187.95 498.224 1187.64 497.07 1186.12 496.311Z" fill="#1FAECE"/>
<path d="M1140.92 248.701L1131.17 229.073C1129.78 226.184 1129.64 223.202 1130.75 220.127C1131.86 217.052 1133.94 214.903 1137 213.68C1139.69 212.56 1142.29 212.574 1144.8 213.722C1147.45 214.803 1149.41 216.605 1150.7 219.129L1151.67 221.271L1153.71 220.106C1156.23 218.821 1158.83 218.501 1161.5 219.148C1164.31 219.727 1166.47 221.261 1167.99 223.75C1169.75 226.537 1170.17 229.501 1169.26 232.641C1168.35 235.781 1166.49 238.111 1163.66 239.632L1144.23 249.776C1143.67 250.147 1143.04 250.219 1142.33 249.991C1141.63 249.762 1141.16 249.333 1140.92 248.701ZM1157.65 270.927C1158.36 271.155 1158.94 271.567 1159.41 272.164C1160.02 272.693 1160.36 273.357 1160.43 274.156C1160.64 274.888 1160.62 275.605 1160.4 276.306L1153.65 297.056C1153.3 298.159 1152.59 298.981 1151.52 299.522C1150.46 300.063 1149.38 300.155 1148.27 299.796L1113.07 288.358C1111.97 287.999 1111.14 287.289 1110.6 286.226C1110.06 285.163 1109.97 284.081 1110.33 282.978L1117.07 262.228C1117.43 261.125 1118.14 260.303 1119.2 259.762C1120.26 259.221 1121.35 259.13 1122.45 259.488L1129.67 261.834L1131.41 260.072C1132.7 258.495 1134.29 258.017 1136.2 258.636L1147.03 262.156C1148.94 262.775 1149.9 264.084 1149.91 266.084L1150.43 268.58L1157.65 270.927ZM1127.99 283.397C1129 285.389 1130.61 286.744 1132.82 287.461C1135.03 288.178 1137.13 288.029 1139.12 287.014C1141.11 285.999 1142.47 284.389 1143.18 282.184C1143.9 279.979 1143.75 277.88 1142.74 275.887C1141.72 273.895 1140.11 272.54 1137.9 271.823C1135.7 271.106 1133.6 271.255 1131.6 272.27C1129.61 273.285 1128.25 274.895 1127.54 277.1C1126.82 279.306 1126.97 281.404 1127.99 283.397ZM1191.9 287.373C1192.7 287.633 1193.15 288.113 1193.26 288.812C1193.5 289.444 1193.33 289.945 1192.77 290.316L1172.14 306.719C1171.57 307.09 1170.94 307.161 1170.24 306.933C1169.64 306.738 1169.2 306.374 1168.93 305.843C1168.66 305.312 1168.7 304.828 1169.07 304.392L1176.73 293.085L1167.41 290.054C1166.8 289.859 1166.35 289.545 1166.05 289.114C1165.78 288.583 1165.77 288.083 1166.04 287.614L1173.82 272.357C1174.22 271.487 1174.96 271.232 1176.07 271.59L1187.5 275.305C1188.1 275.501 1188.54 275.864 1188.81 276.395C1189.08 276.927 1189.03 277.41 1188.67 277.846L1182.87 284.44L1191.9 287.373ZM1205.93 233.418C1207.4 233.674 1208.48 234.466 1209.15 235.795C1209.86 237.023 1209.97 238.388 1209.49 239.892L1202.45 261.544C1201.8 263.549 1200.29 264.944 1197.93 265.728C1195.57 266.512 1193.03 266.464 1190.33 265.584C1187.72 264.737 1185.69 263.302 1184.24 261.279C1182.89 259.289 1182.54 257.292 1183.19 255.287C1183.85 253.282 1185.3 251.872 1187.56 251.055C1189.92 250.271 1192.46 250.318 1195.17 251.198C1195.97 251.459 1196.74 251.82 1197.48 252.281L1199.82 245.064L1182.09 242.295L1176.82 258.535C1176.16 260.539 1174.66 261.934 1172.3 262.718C1169.93 263.502 1167.4 263.454 1164.69 262.575C1162.08 261.727 1160.06 260.292 1158.61 258.27C1157.26 256.28 1156.91 254.282 1157.56 252.278C1158.21 250.273 1159.67 248.862 1161.93 248.045C1164.29 247.261 1166.82 247.309 1169.53 248.189C1170.33 248.449 1171.1 248.81 1171.84 249.271L1177.07 233.183C1177.46 231.98 1178.15 231.041 1179.15 230.367C1180.24 229.726 1181.38 229.484 1182.54 229.642L1205.93 233.418Z" fill="#1FAECE"/>
<path d="M1182.61 89.6376C1183.61 89.9062 1184.25 90.525 1184.53 91.4941C1185.02 92.341 1185.04 93.2429 1184.61 94.1999L1181.49 99.8075C1180.59 101.176 1179.39 101.659 1177.88 101.256L1172.87 99.9128C1175.7 104.07 1176.46 108.569 1175.16 113.411L1171.94 125.432C1170.87 129.439 1168.59 132.587 1165.11 134.876L1161.49 148.399C1160.91 150.57 1159.56 152.266 1157.44 153.488C1155.53 154.588 1153.5 154.847 1151.32 154.265L1143.31 152.116C1141.13 151.534 1139.41 150.268 1138.15 148.318C1137.09 146.246 1136.85 144.124 1137.43 141.954L1139.58 133.94L1075.43 116.751L1073.28 124.765C1072.7 126.935 1071.35 128.631 1069.24 129.853C1067.33 130.953 1065.29 131.212 1063.12 130.63L1055.1 128.482C1052.93 127.9 1051.21 126.634 1049.94 124.683C1048.88 122.611 1048.65 120.489 1049.23 118.319L1052.85 104.795C1050.98 101.074 1050.59 97.2098 1051.66 93.2028L1054.88 81.1819C1056.18 76.3401 1059.09 72.8255 1063.62 70.6381L1058.6 69.2952C1057.1 68.8923 1056.3 67.8724 1056.2 66.2355L1056.31 59.8222C1056.41 58.7757 1056.8 57.9857 1057.48 57.4521C1058.37 56.7964 1059.32 56.6028 1060.32 56.8714L1075.36 60.9L1082.43 51.5231C1084.11 49.2874 1086.07 47.308 1088.32 45.5852C1090.79 43.7402 1093.31 42.3573 1095.88 41.4366C1098.62 40.5607 1101.44 40.0634 1104.34 39.9448C1107.23 39.8263 1110.1 40.1474 1112.94 40.9084L1145.02 49.5028C1150.7 51.0248 1155.45 53.9985 1159.28 58.424C1163.27 62.8944 1165.56 68.0694 1166.13 73.9492L1167.57 85.609L1182.61 89.6376ZM1095.61 61.4951L1087.24 72.674L1151.39 89.8629L1149.74 75.9982C1149.48 73.6039 1148.45 71.448 1146.63 69.5304C1145.03 67.4907 1143.06 66.1574 1140.72 65.5308L1108.65 56.9363C1106.31 56.3097 1103.85 56.4567 1101.28 57.3774C1098.92 58.1759 1097.03 59.5485 1095.61 61.4951ZM1071.71 98.5743C1072.04 98.6638 1072.71 98.8429 1073.71 99.1115C1074.88 99.4248 1075.72 99.6486 1076.22 99.7829C1076.72 99.9172 1077.39 100.096 1078.22 100.32C1079.27 100.422 1080.07 100.456 1080.61 100.423C1081.16 100.391 1081.7 100.358 1082.25 100.325C1083.01 100.171 1083.54 99.8651 1083.84 99.409C1084.31 98.9977 1084.63 98.4581 1084.81 97.7902C1085.48 95.2859 1084.75 92.3175 1082.63 88.8853C1080.55 85.286 1078.34 83.1731 1076 82.5464C1073.66 81.9197 1071.54 82.1562 1069.63 83.256C1067.73 84.3558 1066.46 86.0743 1065.84 88.4117C1065.21 90.7492 1065.45 92.8706 1066.55 94.7761C1067.65 96.6816 1069.37 97.9476 1071.71 98.5743ZM1151.89 120.06C1154.23 120.687 1156.36 120.45 1158.26 119.351C1160.17 118.251 1161.43 116.532 1162.06 114.195C1162.69 111.858 1162.45 109.736 1161.35 107.831C1160.25 105.925 1158.53 104.659 1156.19 104.032C1154.69 103.63 1152.75 103.827 1150.39 104.626C1148.19 105.469 1146.16 106.714 1144.29 108.359C1142.46 109.837 1141.34 111.328 1140.94 112.83C1140.76 113.498 1140.69 114.105 1140.72 114.651C1140.92 115.241 1141.23 115.77 1141.64 116.239C1142.26 116.585 1142.8 116.908 1143.26 117.209C1143.71 117.511 1144.34 117.857 1145.13 118.247C1146.13 118.516 1146.88 118.717 1147.38 118.852C1147.89 118.986 1148.64 119.187 1149.64 119.456C1150.81 119.769 1151.56 119.971 1151.89 120.06Z" fill="#1FAECE"/>
<path d="M875.023 149.771C871.389 151.867 867.611 152.389 863.689 151.338C859.767 150.287 856.756 147.946 854.657 144.314C852.518 140.833 851.993 137.058 853.084 132.988L882.049 140.749C880.958 144.819 878.616 147.826 875.023 149.771ZM921.428 130.462C922.382 132.333 922.616 134.173 922.132 135.981C921.607 137.941 920.463 139.492 918.702 140.636C916.981 141.628 915.064 141.842 912.952 141.276L826.058 117.992C824.7 117.629 823.498 116.984 822.453 116.057C821.599 115.021 821.012 113.894 820.691 112.677C820.41 111.31 820.432 110.023 820.755 108.817C821.24 107.009 822.363 105.533 824.124 104.389C824.316 104.279 824.623 104.038 825.045 103.667C827.914 102.012 830.194 100.442 831.886 98.957C833.728 97.5121 836.07 94.5048 838.911 89.9351C841.793 85.2147 844.122 79.5385 845.899 72.9066C848.242 64.1646 852.997 57.2806 860.164 52.2547C867.332 47.2287 875.362 45.0186 884.254 45.6243L885.526 40.8764C886.051 38.917 887.174 37.4409 888.896 36.4482C890.808 35.3452 892.745 35.0564 894.706 35.5819C896.667 36.1074 898.125 37.3057 899.079 39.1767C900.224 40.9375 900.534 42.7976 900.009 44.757L898.736 49.5048C904.036 52.0555 908.428 55.575 911.915 60.0631C915.401 64.5513 917.685 69.6058 918.766 75.2264C919.998 80.8875 919.846 86.5819 918.311 92.3094C916.534 98.9413 915.714 105.022 915.849 110.551C916.025 115.929 916.474 119.684 917.196 121.816C918.069 123.988 919.334 126.508 920.991 129.375C921.172 129.908 921.317 130.27 921.428 130.462Z" fill="#1FAECE"/>
<path d="M120.29 77.3057C121.486 80.9188 123.236 84.1961 125.541 87.1376C128.015 90.0554 130.766 92.5045 133.796 94.4849C136.97 96.273 140.423 97.5924 144.154 98.443C147.861 99.1251 151.653 99.1936 155.532 98.6485C158.061 98.293 160.712 97.5768 163.484 96.4997L170.803 148.578C170.969 149.758 170.677 150.744 169.929 151.537C169.373 152.474 168.505 153.026 167.324 153.192L159.23 154.329C158.05 154.495 156.979 154.216 156.017 153.492C155.248 152.912 154.781 152.033 154.615 150.853L149.498 114.449L120.533 143.269L128.627 142.131C130.819 141.823 132.781 142.321 134.512 143.624C136.435 145.073 137.55 146.892 137.858 149.083L138.427 153.128C138.592 154.308 138.301 155.294 137.553 156.087C136.997 157.024 136.128 157.576 134.948 157.742L90.4306 163.998C86.0463 164.615 82.0272 163.547 78.3732 160.795C74.7193 158.043 72.5844 154.476 71.9685 150.094L62.8729 85.3752C62.565 83.1842 61.4613 81.4488 59.5619 80.169C57.8074 78.6969 55.834 78.1149 53.6419 78.4229C51.4497 78.731 49.4039 78.2451 47.5045 76.9653C45.75 75.4932 44.7188 73.6617 44.4109 71.4707C44.1029 69.2797 44.6012 67.3191 45.9057 65.589C47.3551 63.6666 49.1758 62.5514 51.368 62.2433C58.113 61.2953 64.178 62.8491 69.5627 66.9046C74.9475 70.9601 78.1136 76.3586 79.0611 83.1001L82.1166 104.842C84.6336 99.5037 87.7749 94.9374 91.5406 91.1427C95.4511 87.1557 99.4313 84.2761 103.481 82.5039C107.7 80.708 110.966 79.4756 113.279 78.8067C115.592 78.1378 117.93 77.6375 120.29 77.3057ZM156.591 47.4552L170.505 29.0004L175.266 62.8766C176.214 69.6181 174.658 75.6802 170.6 81.0628C166.542 86.4454 161.14 89.6107 154.395 90.5587C147.65 91.5067 141.585 89.9529 136.2 85.8974C130.815 81.8419 127.649 76.4434 126.702 69.7018L121.941 35.8257L140.403 49.7302L156.591 47.4552ZM138.044 69.6546C138.982 70.2102 140.041 70.4051 141.222 70.2392C142.402 70.0733 143.282 69.6059 143.862 68.837C144.587 67.8758 144.866 66.8053 144.7 65.6255C144.534 64.4458 143.983 63.578 143.045 63.0224C142.252 62.2745 141.265 61.9835 140.085 62.1494C138.904 62.3153 137.952 62.8788 137.227 63.84C136.647 64.6089 136.44 65.5833 136.606 66.7631C136.772 67.9428 137.251 68.9067 138.044 69.6546ZM158.28 66.8107C159.217 67.3663 160.277 67.5612 161.457 67.3953C162.637 67.2294 163.517 66.762 164.097 65.9931C164.822 65.0319 165.101 63.9614 164.935 62.7817C164.77 61.6019 164.218 60.7342 163.28 60.1785C162.487 59.4306 161.5 59.1396 160.32 59.3055C159.14 59.4714 158.187 60.0349 157.462 60.9961C156.883 61.7651 156.676 62.7394 156.841 63.9192C157.007 65.099 157.487 66.0628 158.28 66.8107Z" fill="#1FAECE"/>
<path d="M408.378 511.711C411.051 525.325 419.606 533.968 434.043 537.642C433.057 546.363 430.274 555.662 425.693 565.539C421.112 575.415 415.379 581.142 408.494 582.719C405.463 583.314 401.267 583.128 395.906 582.161C390.545 581.194 386.024 581.072 382.344 581.794C378.663 582.517 374.416 584.361 369.602 587.326C365.005 590.249 361.515 591.944 359.134 592.412C354.414 593.563 348.817 591.969 342.344 587.629C336.087 583.247 330.762 578.458 326.369 573.261C322.193 568.022 318.771 563.195 316.106 558.781C311.293 550.301 308.059 541.847 306.404 533.419C303.73 519.805 305.331 508.494 311.207 499.485C317.299 490.434 325.303 484.823 335.219 482.651C338.467 482.013 343.333 482.18 349.819 483.15C356.306 484.121 360.198 484.479 361.497 484.223C362.363 484.053 363.815 483.432 365.852 482.358C368.064 481.026 370.276 479.694 372.487 478.362C374.657 476.814 377.193 475.418 380.097 474.175C383.217 472.889 386.097 472.099 388.737 471.805C401.289 470.462 411.445 473.517 419.204 480.971C409.436 489.622 405.827 499.868 408.378 511.711ZM379.365 461.863C374.05 471.435 367.324 476.683 359.186 477.608C356.623 469.134 357.801 460.823 362.722 452.676C364.725 449.14 367.572 445.888 371.261 442.919C374.95 439.951 378.721 437.976 382.576 436.994C384.923 445.511 383.852 453.8 379.365 461.863Z" fill="#1FAECE"/>
<path d="M351.126 137.384C351.178 137.974 350.836 138.301 350.101 138.365C349.232 138.59 348.765 138.334 348.701 137.597C348.662 137.154 349.01 136.901 349.745 136.837C350.614 136.612 351.074 136.795 351.126 137.384ZM345.192 138.126C344.297 138.056 343.898 137.72 343.993 137.117C344.236 136.502 344.737 136.309 345.498 136.54C346.246 136.623 346.572 136.966 346.477 137.568C346.381 138.171 345.953 138.357 345.192 138.126ZM353.876 135.807C354.611 135.743 354.998 135.932 355.037 136.374C355.222 136.803 354.961 137.197 354.252 137.557C353.529 137.768 353.069 137.586 352.871 137.009C352.819 136.419 353.154 136.019 353.876 135.807ZM361.019 49.8423C371.014 48.9679 380.481 50.5164 389.419 54.4879C398.357 58.4593 405.612 64.3606 411.185 72.1916C416.905 80.0097 420.204 88.931 421.081 98.9554C422.151 111.191 419.658 122.476 413.601 132.81C407.677 142.984 399.365 150.395 388.663 155.045C387.513 155.443 386.545 155.379 385.758 154.854C385.119 154.316 384.76 153.604 384.683 152.72C384.67 152.572 384.463 150.214 384.064 145.644C383.651 140.926 383.316 137.093 383.058 134.145C382.645 129.428 381.099 126.146 378.419 124.301C381.615 123.576 384.081 122.989 385.819 122.54C387.557 122.091 389.704 121.234 392.26 119.971C394.815 118.708 396.683 117.207 397.864 115.47C399.192 113.72 400.242 111.325 401.013 108.287C401.784 105.249 401.989 101.666 401.628 97.5379C401.383 94.7369 400.742 92.4905 399.705 90.7987C398.668 89.1068 397.024 87.2453 394.773 85.2141C396.137 80.4898 395.552 75.4905 393.017 70.2161C391.508 69.9024 389.549 70.3708 387.141 71.6214C384.719 72.7245 382.605 73.9493 380.797 75.2959L378.325 77.5175C373.653 76.5894 368.891 76.3375 364.04 76.7619C359.337 77.1734 354.838 78.2354 350.544 79.948C349.758 79.4226 348.671 78.8493 347.284 78.2279C345.883 77.4592 343.742 76.681 340.858 75.8934C338.109 74.9455 336.093 74.7506 334.809 75.3086C333.081 80.9559 333.299 85.9874 335.463 90.4031C332.404 94.3843 331.088 98.8073 331.514 103.672C331.875 107.8 332.699 111.293 333.986 114.151C335.273 117.009 336.648 119.192 338.113 120.697C339.578 122.203 341.605 123.363 344.194 124.176C346.783 124.989 348.979 125.54 350.781 125.828C352.718 125.956 355.243 126.032 358.355 126.057C356.599 127.993 355.643 130.602 355.485 133.884C354.067 134.602 352.562 135.179 350.971 135.615C349.527 136.039 347.591 135.911 345.161 135.232C342.732 134.554 340.673 133.026 338.984 130.648C337.96 129.104 336.674 127.953 335.127 127.198C333.714 126.281 332.486 125.795 331.445 125.737L330.102 125.632C326.869 125.915 326.818 127.033 329.952 128.987C331.032 129.487 332.145 130.355 333.29 131.592C334.435 132.829 335.273 133.944 335.804 134.937L336.841 136.629C337.584 138.346 338.742 139.731 340.315 140.781C341.888 141.832 343.569 142.428 345.359 142.568C347.148 142.709 348.852 142.708 350.469 142.567C352.085 142.425 353.402 142.236 354.418 141.998L355.942 141.642C356.097 143.411 356.329 146.065 356.638 149.603C357.095 153.128 357.33 154.964 357.343 155.112C357.42 155.996 357.117 156.765 356.434 157.419C355.897 158.061 355.028 158.285 353.826 158.093C342.333 155.385 332.713 149.542 324.966 140.564C317.206 131.439 312.791 120.759 311.72 108.523C310.379 93.1918 314.402 79.9163 323.788 68.6969C333.322 57.4646 345.732 51.1798 361.019 49.8423ZM335.061 128.986C335.33 128.665 335.703 128.707 336.183 129.111C336.663 129.514 336.769 129.876 336.5 130.197C336.232 130.517 335.858 130.476 335.379 130.072C334.899 129.669 334.793 129.306 335.061 128.986ZM332.481 127.429C332.749 127.108 333.11 127.003 333.564 127.111C334.031 127.368 334.204 127.65 334.083 127.957C333.974 128.412 333.687 128.512 333.22 128.256C332.606 128.012 332.36 127.737 332.481 127.429ZM340.434 134.532C340.69 134.064 341.137 134.099 341.777 134.637C342.416 135.175 342.608 135.679 342.353 136.147C341.951 136.627 341.43 136.599 340.79 136.06C340.151 135.522 340.032 135.013 340.434 134.532ZM337.518 131.668C337.92 131.187 338.374 131.296 338.879 131.994C339.372 132.545 339.411 132.987 338.995 133.321C338.58 133.654 338.126 133.545 337.634 132.994C337.275 132.283 337.237 131.841 337.518 131.668Z" fill="#1FAECE"/>
<path d="M314.672 224.891C308.328 246.109 301.656 266.672 294.656 286.578C297.937 287.453 300.016 288 300.891 288.219C303.297 289.094 304.5 290.734 304.5 293.141C304.5 294.016 304.281 294.891 303.844 295.766C287.219 327.703 271.687 351.109 257.25 365.984C257.031 366.203 256.812 366.422 256.594 366.641C256.375 366.859 256.266 367.078 256.266 367.297C243.797 379.766 228.703 386 210.984 386C193.266 386 178.172 379.766 165.703 367.297C153.234 354.828 147 339.734 147 322.016C147 304.297 153.234 289.203 165.703 276.734C165.922 276.734 166.141 276.625 166.359 276.406C166.578 276.187 166.797 275.969 167.016 275.75C181.891 261.312 205.297 245.781 237.234 229.156C237.891 228.719 238.656 228.5 239.531 228.5C242.156 228.5 243.906 229.703 244.781 232.109C245 232.766 245.547 234.844 246.422 238.344C266.328 231.344 286.891 224.672 308.109 218.328C308.547 218.109 309.094 218 309.75 218C311.281 218 312.484 218.547 313.359 219.641C314.453 220.734 315 221.937 315 223.25C315 223.906 314.891 224.453 314.672 224.891ZM239.531 352.859C247.844 344.547 252 334.594 252 323C252 311.406 247.844 301.562 239.531 293.469C231.437 285.156 221.594 281 210 281C198.406 281 188.453 285.156 180.141 293.469C172.047 301.562 168 311.406 168 323C168 334.594 172.047 344.547 180.141 352.859C188.453 360.953 198.406 365 210 365C221.594 365 231.437 360.953 239.531 352.859ZM210 312.5C210 315.344 208.906 317.859 206.719 320.047C204.75 322.016 202.344 323 199.5 323C196.656 323 194.141 322.016 191.953 320.047C189.984 317.859 189 315.344 189 312.5C189 309.656 189.984 307.25 191.953 305.281C194.141 303.094 196.656 302 199.5 302C202.344 302 204.75 303.094 206.719 305.281C208.906 307.25 210 309.656 210 312.5ZM218.859 335.141C219.953 336.016 220.5 337.219 220.5 338.75C220.5 340.281 219.953 341.594 218.859 342.687C217.984 343.562 216.781 344 215.25 344C213.719 344 212.406 343.562 211.312 342.687C210.437 341.594 210 340.281 210 338.75C210 337.219 210.437 336.016 211.312 335.141C212.406 334.047 213.719 333.5 215.25 333.5C216.781 333.5 217.984 334.047 218.859 335.141Z" fill="#1FAECE"/>
<path d="M101.393 526.591L90.2629 519.878C88.7846 519.069 88.5159 517.945 89.457 516.506L140.658 430.892C141.467 429.418 142.611 429.086 144.089 429.895L155.219 436.609C156.697 437.418 156.966 438.542 156.025 439.981L104.824 525.595C103.883 527.034 102.739 527.366 101.393 526.591ZM84.6977 498.398C83.3328 499.305 82.1952 499.076 81.2847 497.714L59.7962 463.627C58.7884 462.098 59.0987 460.915 60.7272 460.078L96.1817 440.93C97.6439 440.189 98.7471 440.549 99.4912 442.009L105.614 453.309C106.49 454.803 106.197 455.92 104.734 456.661L82.6039 467.714L96.4583 488.207C97.3688 489.57 97.0757 490.687 95.579 491.559L84.6977 498.398ZM149.3 515.557C147.838 516.297 146.735 515.938 145.991 514.478L139.868 503.178C138.992 501.684 139.285 500.567 140.747 499.826L162.878 488.773L149.024 468.28C148.113 466.917 148.406 465.8 149.903 464.928L160.784 458.089C162.149 457.182 163.287 457.41 164.197 458.773L185.686 492.86C186.693 494.389 186.383 495.572 184.755 496.409L149.3 515.557Z" fill="#1FAECE"/>
</svg>
